<svg width="22" height="23" viewBox="0 0 22 23" fill="none" xmlns="http://www.w3.org/2000/svg">
<path d="M11.0016 20.1089C9.79715 20.1089 8.66504 19.8803 7.60525 19.4232C6.54545 18.9661 5.62357 18.3458 4.83962 17.5622C4.05566 16.7785 3.43502 15.8571 2.97771 14.7977C2.5204 13.7384 2.29175 12.6065 2.29175 11.4021C2.29175 10.1977 2.5203 9.06555 2.97741 8.00576C3.43453 6.94596 4.05488 6.02409 4.83848 5.24014C5.62209 4.45617 6.54356 3.83554 7.60289 3.37823C8.66221 2.92092 9.79408 2.69226 10.9985 2.69226C12.203 2.69226 13.3351 2.92082 14.3949 3.37793C15.4547 3.83504 16.3765 4.45539 17.1605 5.23899C17.9445 6.0226 18.5651 6.94407 19.0224 8.00341C19.4797 9.06272 19.7084 10.1946 19.7084 11.399C19.7084 12.6035 19.4798 13.7356 19.0227 14.7954C18.5656 15.8552 17.9452 16.7771 17.1616 17.561C16.378 18.345 15.4566 18.9656 14.3972 19.4229C13.3379 19.8802 12.206 20.1089 11.0016 20.1089Z" fill="#FFC729"/>
<path d="M15.8617 9.13678L9.69887 15.2996L6.12036 11.7211L7.08637 10.7551L9.69887 13.3676L14.8957 8.17078L15.8617 9.13678Z" fill="#000B50"/>
</svg>
